<?xml version="1.0" encoding="UTF-8"?>
<svg id="_レイヤー_1" data-name="レイヤー 1" xmlns="http://www.w3.org/2000/svg" viewBox="0 0 55 55">
  <defs>
    <style>
      .cls-1 {
        fill: #fafafa;
      }
    </style>
  </defs>
  <path class="cls-1" d="m29.22,8.73h-3.44V0h3.44v8.73Zm17.19,19.21v3.49h8.59v-3.49h-8.59ZM0,31.43h8.59v-3.49H0v3.49ZM7.63,7.9l-2.43,2.47,6.08,6.17,2.43-2.47-6.08-6.17Zm41.31,2.47l-2.43-2.47-6.08,6.17,2.43,2.47,6.08-6.17Zm-5.11,17.57c0,6.32-3.48,11.81-8.59,14.61v12.45h-15.47v-12.45c-14.63-7.29-8.89-31.77,7.73-31.2,9.02,0,16.33,7.43,16.33,16.59Zm-9.36,22.3l-.31-1.72-13.63,2.52.31,1.72,13.63-2.52Zm0-3.49l-.31-1.72-13.63,2.52.31,1.72,13.63-2.52Z"/>
</svg>